{
  "accessors": [
    {
      "bufferView": 1,
      "componentType": 5126,
      "count": 3342,
      "max": [
        0.04997189715504646,
        0.025152340531349182,
        0.005000005941838026
      ],
      "min": [
        -0.024160148575901985,
        -0.049980685114860535,
        -0.005000006407499313
      ],
      "type": "VEC3"
    },
    {
      "bufferView": 1,
      "byteOffset": 40104,
      "componentType": 5126,
      "count": 3342,
      "max": [
        0.999995231628418,
        1.0,
        1.0
      ],
      "min": [
        -0.9999988079071045,
        -0.9999998807907104,
        -1.0
      ],
      "type": "VEC3"
    },
    {
      "bufferView": 0,
      "componentType": 5125,
      "count": 20052,
      "type": "SCALAR"
    },
    {
      "bufferView": 1,
      "byteOffset": 80208,
      "componentType": 5126,
      "count": 3342,
      "max": [
        0.0242684967815876,
        0.04998289421200752,
        0.005000005941838026
      ],
      "min": [
        -0.04997146502137184,
        -0.02505151927471161,
        -0.005000005941838026
      ],
      "type": "VEC3"
    },
    {
      "bufferView": 1,
      "byteOffset": 120312,
      "componentType": 5126,
      "count": 3342,
      "max": [
        1.0,
        0.9999995231628418,
        1.0
      ],
      "min": [
        -1.0,
        -0.9999991655349731,
        -1.0
      ],
      "type": "VEC3"
    },
    {
      "bufferView": 0,
      "byteOffset": 80208,
      "componentType": 5125,
      "count": 20052,
      "type": "SCALAR"
    }
  ],
  "asset": {
    "extras": {
      "author": "Alex human (https://sketchfab.com/alex-human)",
      "license": "CC-BY-4.0 (http://creativecommons.org/licenses/by/4.0/)",
      "source": "https://sketchfab.com/3d-models/python-logo-f8e026fb248646b4be725defaa121d98",
      "title": "Python Logo"
    },
    "generator": "Sketchfab-16.99.0",
    "version": "2.0"
  },
  "bufferViews": [
    {
      "buffer": 0,
      "byteLength": 160416,
      "name": "floatBufferViews",
      "target": 34963
    },
    {
      "buffer": 0,
      "byteLength": 160416,
      "byteOffset": 160416,
      "byteStride": 12,
      "name": "floatBufferViews",
      "target": 34962
    }
  ],
  "buffers": [
    {
      "byteLength": 320832,
      "uri": "scene.bin"
    }
  ],
  "materials": [
    {
      "doubleSided": true,
      "name": "blue",
      "pbrMetallicRoughness": {
        "baseColorFactor": [
          0.0395462,
          0.208637,
          0.47932,
          1.0
        ],
        "roughnessFactor": 0.5
      }
    },
    {
      "doubleSided": true,
      "name": "yellow",
      "pbrMetallicRoughness": {
        "baseColorFactor": [
          1.0,
          0.745404,
          0.0843762,
          1.0
        ],
        "roughnessFactor": 0.5
      }
    }
  ],
  "meshes": [
    {
      "name": "Object_0",
      "primitives": [
        {
          "attributes": {
            "NORMAL": 1,
            "POSITION": 0
          },
          "indices": 2,
          "material": 0,
          "mode": 4
        }
      ]
    },
    {
      "name": "Object_1",
      "primitives": [
        {
          "attributes": {
            "NORMAL": 4,
            "POSITION": 3
          },
          "indices": 5,
          "material": 1,
          "mode": 4
        }
      ]
    }
  ],
  "nodes": [
    {
      "children": [
        1
      ],
      "matrix": [
        1.0,
        0.0,
        0.0,
        0.0,
        0.0,
        2.220446049250313e-16,
        -1.0,
        0.0,
        0.0,
        1.0,
        2.220446049250313e-16,
        0.0,
        0.0,
        0.0,
        0.0,
        1.0
      ],
      "name": "Sketchfab_model"
    },
    {
      "children": [
        2
      ],
      "name": "root"
    },
    {
      "children": [
        3
      ],
      "matrix": [
        1.0,
        0.0,
        0.0,
        0.0,
        0.0,
        2.220446049250313e-16,
        1.0,
        0.0,
        0.0,
        -1.0,
        2.220446049250313e-16,
        0.0,
        0.0,
        0.0,
        0.0,
        1.0
      ],
      "name": "GLTF_SceneRootNode"
    },
    {
      "children": [
        4,
        5
      ],
      "matrix": [
        -0.9999999999999467,
        3.258413698858844e-07,
        0.0,
        0.0,
        -3.258413698858844e-07,
        -0.9999999999999467,
        0.0,
        0.0,
        0.0,
        0.0,
        1.0,
        0.0,
        0.0,
        0.0,
        0.0,
        1.0
      ],
      "name": "python_0"
    },
    {
      "mesh": 0,
      "name": "Object_4"
    },
    {
      "mesh": 1,
      "name": "Object_5"
    }
  ],
  "scene": 0,
  "scenes": [
    {
      "name": "Sketchfab_Scene",
      "nodes": [
        0
      ]
    }
  ]
}
